<svg width="25" height="25" viewBox="0 0 25 25" fill="none" xmlns="http://www.w3.org/2000/svg">
<path fill-rule="evenodd" clip-rule="evenodd" d="M12.5 0C5.59924 0 0 5.59924 0 12.5C0 19.4008 5.59924 25 12.5 25C19.3872 25 25 19.4008 25 12.5C25 5.59924 19.3872 0 12.5 0ZM20.7565 5.76193C22.2478 7.57863 23.1427 9.89695 23.1698 12.4051C22.8173 12.3373 19.2923 11.6188 15.7402 12.0662C15.6589 11.8899 15.5911 11.7001 15.5098 11.5103C15.2928 10.9952 15.0488 10.4664 14.8048 9.96477C18.7364 8.365 20.526 6.0602 20.7565 5.76193ZM12.5 1.84382C15.2115 1.84382 17.6925 2.86063 19.577 4.5282C19.3872 4.79935 17.7738 6.95499 13.9777 8.37852C12.2288 5.1654 10.2902 2.53525 9.99188 2.12852C10.7917 1.93872 11.6323 1.84382 12.5 1.84382ZM7.95828 2.84707C8.24297 3.22668 10.141 5.87039 11.917 9.0157C6.92788 10.3444 2.5217 10.3173 2.04718 10.3173C2.73861 7.00922 4.97559 4.25705 7.95828 2.84707ZM1.8167 12.5136C1.8167 12.4051 1.8167 12.2966 1.8167 12.1882C2.27766 12.2017 7.45662 12.2695 12.7847 10.6698C13.0966 11.2662 13.3812 11.8763 13.6524 12.4864C13.5168 12.5271 13.3677 12.5678 13.2321 12.6084C7.72777 14.3845 4.79935 19.238 4.55531 19.6448C2.86063 17.7603 1.8167 15.2522 1.8167 12.5136ZM12.5 23.1833C10.0325 23.1833 7.75488 22.3427 5.95173 20.9327C6.14154 20.5396 8.3107 16.3639 14.3302 14.2625C14.3573 14.2489 14.3709 14.2489 14.398 14.2354C15.9029 18.1263 16.513 21.3937 16.6757 22.3291C15.3877 22.885 13.9777 23.1833 12.5 23.1833ZM18.4517 21.353C18.3433 20.7023 17.7738 17.5841 16.3774 13.7473C19.7262 13.2185 22.6545 14.0862 23.0206 14.2083C22.5597 17.1773 20.8514 19.7397 18.4517 21.353Z" fill="white"/>
</svg>
