<svg width="25" height="20" viewBox="0 0 25 20" fill="none" xmlns="http://www.w3.org/2000/svg">
<path d="M7.86475 19.4986C17.2964 19.4986 22.4565 12.188 22.4565 5.85016C22.4565 5.64464 22.4517 5.43455 22.4419 5.22903C23.4457 4.55002 24.312 3.70898 25 2.74541C24.0651 3.13446 23.0725 3.38855 22.0562 3.49899C23.1263 2.89898 23.9276 1.95638 24.3115 0.845942C23.3047 1.40402 22.2037 1.7977 21.0557 2.01011C20.2821 1.24132 19.2594 0.732286 18.1455 0.561716C17.0316 0.391146 15.8887 0.568536 14.8935 1.06646C13.8982 1.56438 13.106 2.35511 12.6394 3.31638C12.1728 4.27765 12.0577 5.35594 12.312 6.38451C10.2734 6.28883 8.2791 5.79349 6.45831 4.93063C4.63753 4.06776 3.03093 2.85662 1.74268 1.37573C1.08792 2.43163 0.887559 3.6811 1.18232 4.87021C1.47709 6.05932 2.24486 7.09884 3.32959 7.77749C2.51524 7.75331 1.71872 7.54823 1.00586 7.17919V7.23857C1.00513 8.34665 1.41469 9.42078 2.16491 10.2784C2.91513 11.1359 3.95971 11.7241 5.12109 11.9427C4.36672 12.1358 3.57498 12.1639 2.80713 12.0249C3.13485 12.9779 3.77247 13.8114 4.63101 14.4091C5.48955 15.0068 6.52617 15.3388 7.59619 15.3589C5.77961 16.6936 3.5356 17.4176 1.22559 17.4142C0.815924 17.4136 0.406666 17.3901 0 17.3438C2.34673 18.752 5.07659 19.5 7.86475 19.4986Z" fill="white"/>
</svg>
